<svg width="27" height="24" viewBox="0 0 27 24" fill="none" xmlns="http://www.w3.org/2000/svg">
<rect width="26.0317" height="24" fill="#1877F2"/>
<path d="M24.5 12.0694C24.5 5.71811 19.3513 0.569391 13 0.569391C6.64872 0.569391 1.5 5.71811 1.5 12.0694C1.5 17.8094 5.70538 22.567 11.2031 23.4297V15.3936H8.2832V12.0694H11.2031V9.5358C11.2031 6.65361 12.92 5.06158 15.5468 5.06158C16.805 5.06158 18.1211 5.28619 18.1211 5.28619V8.11627H16.671C15.2424 8.11627 14.7969 9.00273 14.7969 9.91218V12.0694H17.9863L17.4765 15.3936H14.7969V23.4297C20.2946 22.567 24.5 17.8094 24.5 12.0694Z" fill="white"/>
</svg>
